<svg xmlns="http://www.w3.org/2000/svg" width="1200" height="630" viewBox="0 0 1200 630" role="img" aria-labelledby="title desc">
  <title id="title">Photo Sorter project cover</title>
  <desc id="desc">Review photos locally with keep, recycle and favorite gestures</desc>
  <defs>
    <radialGradient id="softGlow" cx="80%" cy="22%" r="62%">
      <stop offset="0" stop-color="#F472B6" stop-opacity=".18"/>
      <stop offset=".58" stop-color="#A78BFA" stop-opacity=".08"/>
      <stop offset="1" stop-color="#FFF9FC" stop-opacity="0"/>
    </radialGradient>
    <filter id="shadow" x="-20%" y="-20%" width="140%" height="140%">
      <feDropShadow dx="0" dy="20" stdDeviation="24" flood-color="#271424" flood-opacity=".14"/>
    </filter>
  </defs>
  <rect width="1200" height="630" rx="44" fill="#FFF9FC"/>
  <rect width="1200" height="630" rx="44" fill="url(#softGlow)"/>
  <path d="M70 96 C250 30 374 74 514 44 C658 12 746 54 864 34 C982 14 1074 52 1130 108" fill="none" stroke="#271424" stroke-opacity=".055" stroke-width="26" stroke-linecap="round"/>
  <g filter="url(#shadow)">
    <rect x="58" y="64" width="1084" height="502" rx="42" fill="white" fill-opacity=".76" stroke="white" stroke-width="2"/>
  </g>
  <g transform="translate(90 118)">
    <rect x="0" y="0" width="58" height="58" rx="18" fill="#F472B6"/>
    <circle cx="42" cy="16" r="10" fill="#A78BFA"/>
    <text x="78" y="24" font-family="Inter, Arial, sans-serif" font-size="20" font-weight="800" fill="#F472B6">SpringShaw/Photo-Sorter</text>
    <text x="78" y="51" font-family="Inter, Arial, sans-serif" font-size="18" font-weight="650" fill="#271424" opacity=".58">Swipe-based photo cleanup</text>
  </g>
  <text x="90" y="262" font-family="Inter, Arial, sans-serif" font-size="68" font-weight="900" fill="#271424">Photo Sorter</text>
  <text x="92" y="318" font-family="Inter, Arial, sans-serif" font-size="27" font-weight="650" fill="#271424" opacity=".70">Review photos locally with keep, recycle and favorite gestures</text>
  <path d="M92 374 h390" stroke="#F472B6" stroke-width="10" stroke-linecap="round"/>
  <path d="M92 399 h260" stroke="#A78BFA" stroke-width="10" stroke-linecap="round" opacity=".65"/>
  <rect x="90" y="482" width="159" height="44" rx="22" fill="white" stroke="#271424" stroke-opacity=".10"/><text x="109" y="511" font-family="Inter, Arial, sans-serif" font-size="18" font-weight="700" fill="#271424" opacity=".72">Swipe cards</text><rect x="263" y="482" width="137" height="44" rx="22" fill="white" stroke="#271424" stroke-opacity=".10"/><text x="282" y="511" font-family="Inter, Arial, sans-serif" font-size="18" font-weight="700" fill="#271424" opacity=".72">Favorites</text><rect x="414" y="482" width="159" height="44" rx="22" fill="white" stroke="#271424" stroke-opacity=".10"/><text x="433" y="511" font-family="Inter, Arial, sans-serif" font-size="18" font-weight="700" fill="#271424" opacity=".72">Recycle bin</text><rect x="587" y="482" width="181" height="44" rx="22" fill="white" stroke="#271424" stroke-opacity=".10"/><text x="606" y="511" font-family="Inter, Arial, sans-serif" font-size="18" font-weight="700" fill="#271424" opacity=".72">Local gallery</text>
  
        <g transform="translate(700 128)">
          <rect x="116" y="32" width="246" height="328" rx="38" fill="white" stroke="#271424" stroke-width="8" transform="rotate(7 239 196)"/>
          <rect x="46" y="78" width="246" height="328" rx="38" fill="white" stroke="#271424" stroke-width="8" transform="rotate(-9 169 242)"/>
          <path d="M92 282 l52 -58 48 42 42 -54 38 70" fill="none" stroke="#A78BFA" stroke-width="12" stroke-linecap="round" stroke-linejoin="round" opacity=".9"/>
          <circle cx="132" cy="156" r="28" fill="#F472B655"/>
          <path d="M316 110 c30 -38 92 -12 86 38 -5 44 -49 73 -86 104 -38 -31 -82 -60 -86 -104 -5 -50 56 -76 86 -38z" fill="#F472B6" opacity=".92"/>
        </g>
</svg>
